<?xml version="1.0" encoding="UTF-8" standalone="no"?>
<svg
   version="1.1"
   width="512px"
   height="512px"
   style="shape-rendering:geometricPrecision; text-rendering:geometricPrecision; image-rendering:optimizeQuality; fill-rule:evenodd; clip-rule:evenodd"
   id="svg150"
   sodipodi:docname="logo_pplmtt.svg"
   inkscape:version="1.2.2 (732a01da63, 2022-12-09)"
   inkscape:export-filename="logo_pplmtt.png"
   inkscape:export-xdpi="96"
   inkscape:export-ydpi="96"
   xmlns:inkscape="http://www.inkscape.org/namespaces/inkscape"
   xmlns:sodipodi="http://sodipodi.sourceforge.net/DTD/sodipodi-0.dtd"
   xmlns="http://www.w3.org/2000/svg"
   xmlns:svg="http://www.w3.org/2000/svg">
  <defs
     id="defs154" />
  <sodipodi:namedview
     id="namedview152"
     pagecolor="#505050"
     bordercolor="#ffffff"
     borderopacity="1"
     inkscape:showpageshadow="0"
     inkscape:pageopacity="0"
     inkscape:pagecheckerboard="1"
     inkscape:deskcolor="#505050"
     showgrid="false"
     inkscape:zoom="0.57245265"
     inkscape:cx="-74.241948"
     inkscape:cy="396.53935"
     inkscape:window-width="1920"
     inkscape:window-height="1009"
     inkscape:window-x="1912"
     inkscape:window-y="-8"
     inkscape:window-maximized="1"
     inkscape:current-layer="svg150" />
  <circle
     style="fill:#00294e;fill-opacity:0.99607843;stroke:none;stroke-width:0.920952;stroke-linecap:round;stroke-linejoin:round"
     id="path1090"
     cx="256"
     cy="255.49992"
     r="245.20882" />
  <g
     id="g12">
    <path
       style="opacity:1"
       fill="#d52a2c"
       d="m 162.5,85.5 c 32.53944,2.863207 66.68895,40.45425 59,84 -6.27526,36.72561 -39.60674,70.71136 -72,80.5 -5.375,1.875 -10.709,1.875 -16,0 -20.777,-11.188 -41.444,-22.521 -62,-34 -8.171953,-5.6604 -12.685373,-15.4942 -11,-24.5 8.427396,-62.04751 47.37273,-109.794467 102,-106 z"
       id="path10"
       sodipodi:nodetypes="ccccccc" />
  </g>
  <g
     id="g28">
    <path
       style="opacity:1"
       fill="#eaeae2"
       d="m 439.5,130.5 c 4.13018,9.63693 3.69125,15.11054 -2,22 -70.96283,-2.50837 -146.06011,17.13005 -204,43 0.62809,-7.25896 1.97134,-9.8287 7,-14.5 71.99941,-31.46205 128.94015,-54.94783 199,-50.5 z"
       id="path26"
       sodipodi:nodetypes="ccccc" />
  </g>
  <g
     id="g76">
    <path
       style="opacity:1"
       fill="#e9e9e1"
       d="m 120.5,256.5 c -30.078606,3.44958 -53.144025,52.21508 -67,72.5 -2.7567,0.584 -5.4234,0.25 -8,-1 -4.52,-2.288 -8.6866,-5.122 -12.5,-8.5 -0.6667,-2 -0.6667,-4 0,-6 14.930151,-25.98632 43.496483,-53.11609 41.5,-82 16.859524,8.7048 30.56241,16.28417 46,25 z"
       id="path74"
       sodipodi:nodetypes="ccccccc" />
  </g>
  <text
     xml:space="preserve"
     style="font-style:normal;font-variant:normal;font-weight:bold;font-stretch:normal;font-size:72px;line-height:1;font-family:Roboto;-inkscape-font-specification:'Roboto Bold';text-align:center;text-anchor:middle;fill:#ffffff;fill-opacity:0.996078;stroke:none;stroke-width:0.755906;stroke-linecap:round;stroke-linejoin:round"
     x="272.66486"
     y="346.73068"
     id="text3309"><tspan
       sodipodi:role="line"
       id="tspan3307"
       x="272.66486"
       y="346.73068"
       style="font-style:normal;font-variant:normal;font-weight:bold;font-stretch:normal;font-family:Poppins;-inkscape-font-specification:'Poppins Bold'">P.P.L.M.</tspan><tspan
       sodipodi:role="line"
       x="272.66486"
       y="418.73068"
       id="tspan3311"
       style="font-style:normal;font-variant:normal;font-weight:bold;font-stretch:normal;font-family:Poppins;-inkscape-font-specification:'Poppins Bold'">TT</tspan></text>
</svg>
