<?xml version="1.0" encoding="UTF-8" standalone="no"?>
<svg
   version="1.1"
   width="100"
   height="100"
   id="svg198"
   sodipodi:docname="logo Pexiora TT.svg"
   inkscape:version="1.2.2 (732a01da63, 2022-12-09)"
   xmlns:inkscape="http://www.inkscape.org/namespaces/inkscape"
   xmlns:sodipodi="http://sodipodi.sourceforge.net/DTD/sodipodi-0.dtd"
   xmlns:xlink="http://www.w3.org/1999/xlink"
   xmlns="http://www.w3.org/2000/svg"
   xmlns:svg="http://www.w3.org/2000/svg">
  <defs
     id="defs202">
    <linearGradient
       inkscape:collect="always"
       id="linearGradient23466">
      <stop
         style="stop-color:#363129;stop-opacity:1;"
         offset="0"
         id="stop23462" />
      <stop
         style="stop-color:#444244;stop-opacity:1;"
         offset="1"
         id="stop23464" />
    </linearGradient>
    <linearGradient
       inkscape:collect="always"
       id="linearGradient13225">
      <stop
         style="stop-color:#363129;stop-opacity:1;"
         offset="0"
         id="stop13221" />
      <stop
         style="stop-color:#444244;stop-opacity:1;"
         offset="1"
         id="stop13223" />
    </linearGradient>
    <linearGradient
       inkscape:collect="always"
       id="linearGradient6651">
      <stop
         style="stop-color:#332e29;stop-opacity:1;"
         offset="0"
         id="stop6647" />
      <stop
         style="stop-color:#6f504b;stop-opacity:1;"
         offset="1"
         id="stop6649" />
    </linearGradient>
    <linearGradient
       inkscape:collect="always"
       xlink:href="#linearGradient6651"
       id="linearGradient6653"
       x1="3"
       y1="22.383781"
       x2="6.0078926"
       y2="1.2526637"
       gradientUnits="userSpaceOnUse"
       gradientTransform="matrix(0.13249135,0,0,0.13249135,12.823499,50.655666)" />
    <linearGradient
       inkscape:collect="always"
       xlink:href="#linearGradient13225"
       id="linearGradient13227"
       x1="1.7498899"
       y1="16.403934"
       x2="4.7350039"
       y2="-0.21014209"
       gradientUnits="userSpaceOnUse"
       gradientTransform="matrix(0.13249135,0,0,0.13249135,11.366102,51.05314)" />
    <linearGradient
       inkscape:collect="always"
       xlink:href="#linearGradient23466"
       id="linearGradient23468"
       x1="7.4960537"
       y1="216.63437"
       x2="5.4111462"
       y2="164.93745"
       gradientUnits="userSpaceOnUse"
       gradientTransform="matrix(0.13249135,0,0,0.13249135,11.23361,32.371851)" />
  </defs>
  <sodipodi:namedview
     id="namedview200"
     pagecolor="#505050"
     bordercolor="#ffffff"
     borderopacity="1"
     inkscape:showpageshadow="0"
     inkscape:pageopacity="0"
     inkscape:pagecheckerboard="1"
     inkscape:deskcolor="#505050"
     showgrid="false"
     inkscape:zoom="4"
     inkscape:cx="70.25"
     inkscape:cy="33.5"
     inkscape:window-width="1920"
     inkscape:window-height="1009"
     inkscape:window-x="-8"
     inkscape:window-y="-8"
     inkscape:window-maximized="1"
     inkscape:current-layer="svg198" />
  <path
     style="fill:#002a4b;stroke-width:0.227025;stroke-linecap:round;stroke-linejoin:round;fill-opacity:1"
     id="path8690"
     sodipodi:type="arc"
     sodipodi:cx="50.080841"
     sodipodi:cy="49.932602"
     sodipodi:rx="49.716537"
     sodipodi:ry="49.716537"
     sodipodi:start="0"
     sodipodi:end="6.2831787"
     sodipodi:arc-type="slice"
     d="M 99.797379,49.932602 A 49.716537,49.716537 0 0 1 50.080923,99.649139 49.716537,49.716537 0 0 1 0.36430359,49.932766 49.716537,49.716537 0 0 1 50.080595,0.21606445 49.716537,49.716537 0 0 1 99.797379,49.932273 l -49.716538,3.29e-4 z" />
  <path
     d="m 11.233611,32.371851 c 10.134554,0.754567 10.98616,14.437584 4.654792,18.296627 -1.608549,0.894873 -2.324683,2.07529 -2.842294,3.829436 h -0.09018 C 12.83277,53.213313 12.808551,51.944342 12.82342,50.655666 h -1.457398 v 0.264983 h 1.192415 c 0.04075,0.774138 -0.0093,1.291508 -0.397463,1.987364 -0.217253,0.181038 -0.437658,0.358402 -0.662459,0.529968 -0.115285,0.282136 -0.115285,0.282136 -0.132518,0.529966 h 1.059934 c 0.244543,2.471791 0.339164,4.937865 0.397461,7.419516 -0.516261,0.223397 -0.892403,0.291259 -1.457395,0.264983 l -0.13252,0.397475 z"
     fill="#c81f2e"
     id="path4"
     sodipodi:nodetypes="cccccccccccccccc"
     style="stroke-width:0.132491" />
  <path
     id="path6"
     d="m 65.93727,51.715853 c -0.09565,-0.008 -0.220633,0.0314 -0.382208,0.132253 -0.362474,0.29798 -0.655551,0.880793 -0.906214,1.406941 -0.541923,1.145965 -1.340081,2.38727 -2.175762,3.500666 -1.040925,1.482404 -2.000308,3.242829 -3.710012,4.086273 -0.209383,0.343464 0.362837,0.569349 0.680307,0.636315 0.373257,0.146694 1.269373,-0.102332 1.491048,-0.439648 0.279198,-0.492361 0.849975,-1.445333 1.198371,-1.891636 0.303857,-0.396112 3.642922,-0.897772 4.74718,-0.939331 0.338577,1.068296 1.233131,2.650664 1.457411,3.047297 0.299049,0.517972 1.325159,0.206232 1.047765,-0.168721 C 68.8641,60.381951 68.144291,58.5414 67.870049,57.715765 67.719042,57.261126 67.565244,56.809642 67.393385,56.362379 l -0.16148,-0.40911 c -0.108736,-0.278196 -0.217828,-0.556285 -0.327076,-0.834294 -0.390314,-0.959664 -0.621035,-1.805993 -0.677728,-2.84494 -0.0093,-0.300452 -0.07921,-0.541655 -0.289831,-0.558168 z m -0.492698,2.414337 c 0.336494,0.308866 0.905443,3.15004 0.905443,3.15004 l -3.312283,0.66246 c 0.412411,-0.665239 2.40684,-3.8125 2.40684,-3.8125 z"
     style="fill:#ffffff;stroke-width:0.132491" />
  <path
     d="m 84.368846,52.64303 c 0.119828,0.111279 0,0.794951 0,0.794951 l 0.214261,-0.06319 c 0.378119,-0.08308 0.740421,-0.09978 1.127208,-0.119026 1.336901,-0.08883 2.656904,-0.31087 3.965937,-0.594663 2.632965,-0.568627 3.429212,-0.28609 3.543829,-0.0093 0.0899,0.107001 0.114618,0.670928 0,0.722174 -0.08562,0.05143 -0.204496,0.06999 -0.204496,0.06999 -2.101152,0.05784 -2.101152,0.05784 -4.142043,0.524115 -0.386576,2.09736 -0.749171,4.32108 -0.455441,6.450673 0.05797,0.438874 0.07306,0.777905 -0.07454,0.83635 -1.407287,0.507351 -1.24407,-2.228381 -1.192412,-3.047299 0.132518,-1.374012 0.332365,-2.741316 0.529968,-4.107233 l -0.470454,0.05798 c -1.423507,-0.0557 -3.835211,1.066642 -3.504287,-0.587929 -1.303384,-0.04462 -2.451607,-0.0027 -3.709771,0.397473 -0.403634,2.073995 -0.577083,4.171863 -0.520189,6.283209 0.0569,0.504331 0.250477,1.073159 -0.274748,1.136306 -2.009365,-0.29472 -0.646495,-5.743583 -0.397475,-7.287023 l -0.470455,0.05797 c -0.477147,0.02392 -3.738772,0.34412 -3.335472,-0.538797 0.132116,-0.302041 0.607393,-0.260602 0.931477,-0.291862 0.204094,-0.02097 0.408175,-0.04194 0.612257,-0.06304 l 0.32483,-0.033 c 2.175588,-0.217039 2.175588,-0.217039 4.322202,-0.621781 2.104332,-0.527937 2.960505,-0.211149 3.179802,0.03312 z"
     fill="#0b0809"
     id="path12"
     sodipodi:nodetypes="cccccccccccccccccccccccccc"
     style="fill:#ffffff;stroke-width:0.132491" />
  <path
     d="m 24.249842,53.024461 c -2.044271,0.590349 -4.147737,0.612137 -6.259175,0.678504 v 2.384838 c 1.28098,0.02392 2.445153,-0.04169 3.709757,-0.264983 1.133941,-0.135338 1.285456,-0.0867 1.1967,0.769261 -0.0093,0.179903 -1.236149,0.489343 -1.978706,0.519949 L 20.62832,57.1282 c -0.302269,0.01643 -0.60459,0.03046 -0.906978,0.04449 -0.206432,0.01068 -0.412839,0.02178 -0.619245,0.03287 -0.5029,0.02712 -1.005815,0.0509 -1.508906,0.07481 l -0.529969,2.782313 c 0.563166,-0.03768 1.126222,-0.07655 1.689278,-0.115952 l 0.476653,-0.03153 c 1.184906,-0.08417 2.385388,-0.177256 3.522922,-0.5398 0.421587,-0.111811 0.934536,-0.372413 1.092436,0.04902 0.392787,1.194832 -1.018682,1.282209 -1.73626,1.355563 l -0.345055,0.04035 c -0.362984,0.04207 -0.726221,0.08123 -1.089578,0.120095 -0.36138,0.04034 -0.722667,0.08136 -1.083914,0.1229 -0.224211,0.02566 -0.448504,0.05051 -0.672917,0.0744 -0.633044,0.07027 -1.244192,0.177229 -1.863716,0.32575 -1.81712,0.13614 -1.134904,-2.031126 -0.868825,-3.012285 0.175147,-0.707544 0.261524,-1.411534 0.321585,-2.137033 l 0.02444,-0.29575 c 0.03994,-0.496651 0.07535,-0.993366 0.106869,-1.490618 0.01363,-0.186034 0.02724,-0.372082 0.04101,-0.558116 l 0.0318,-0.503209 c 0.101263,-0.488461 0.231024,-0.651691 0.618202,-0.95575 0.376194,-0.18809 0.688975,-0.142523 1.109106,-0.136098 l 0.52091,0.0054 c 0.272051,0.0027 0.544089,0.0067 0.816139,0.01202 1.217299,0.01883 2.349905,-0.03594 3.528612,-0.35219 0.934456,-0.444245 1.822999,0.546184 0.946879,0.985888 z"
     fill="#080708"
     id="path14"
     sodipodi:nodetypes="ccccccccccccccccccccccccccccccccc"
     style="fill:#ffffff;stroke-width:0.132491" />
  <path
     d="m 56.186993,52.96909 c 1.125272,0.870921 1.075603,2.197991 0.358655,3.118713 -0.618749,0.639602 -1.373878,1.112875 -2.119856,1.589902 0.281001,0.210535 0.562536,0.420252 0.844632,0.62933 l 0.264236,0.19648 c 0.503824,0.370396 1.013887,0.723267 1.541476,1.059079 l 0.329747,0.211296 c 0.213645,0.135777 0.428548,0.269617 0.644718,0.401347 0.588345,0.309335 0.87521,0.711834 0.747407,1.212226 -0.132519,0.132517 -0.132519,0.132517 -0.493217,0.163536 -1.323609,-0.09458 -2.556084,-1.353558 -3.542078,-2.168507 -0.156164,-0.127041 -0.312636,-0.253629 -0.469414,-0.37987 l -0.235995,-0.192524 c -0.513374,-0.396662 -0.869172,-0.552503 -1.536078,-0.569308 -0.737763,-0.02566 -0.737763,-0.02566 -0.877749,-0.165608 -0.0054,-0.264931 -0.0054,-0.530036 0,-0.794952 l 0.417141,-0.08803 c 1.403546,-0.492671 4.892337,-1.786865 3.557599,-3.182905 -0.889288,-0.95237 -2.576307,-0.793173 -4.024435,-0.637611 l -0.480271,0.06627 0.132517,0.455439 c 0.239923,0.994236 0.129579,1.843142 -0.06627,2.831995 -0.280547,1.435047 -0.427532,3.096058 -0.06626,4.529556 -0.877761,0.16562 -0.877761,0.16562 -1.324918,-0.132519 -0.315599,-0.946813 -0.11355,-1.977919 0.05797,-2.939654 0.246441,-1.487533 0.302428,-2.974546 0.339511,-4.47986 0,0 -0.672464,0.302 -1.059934,0.132519 0,0 -0.435894,-0.275004 0,-0.662459 2.124865,-1.013247 4.950677,-1.548383 7.06086,-0.203908 z"
     fill="#0b0a0c"
     id="path16"
     sodipodi:nodetypes="ccccccccccccccccccccccccccccc"
     style="fill:#ffffff;stroke-width:0.132491" />
  <path
     d="m 46.211327,52.775521 c 1.537068,0.92735 1.20167,4.264585 0.115953,5.779945 -1.306429,1.542665 -2.653616,2.940095 -4.76555,3.134759 -2.031902,0.01829 -3.227534,-1.309957 -3.35782,-3.101643 0.08924,-2.076467 1.209243,-4.019078 2.707785,-5.415584 1.518512,-1.166097 3.676841,-1.424909 5.29966,-0.397477 z m -6.757056,6.359581 c 0.894046,2.149753 2.957568,1.558161 4.388768,0.571379 1.25747,-1.010547 2.226818,-2.301347 2.422111,-3.936961 0.102865,-1.858975 -0.785294,-2.69726 -2.587719,-2.778695 -2.785373,0.372975 -4.422832,4.077268 -4.22316,6.144277 z"
     fill="#0a0709"
     id="path18"
     sodipodi:nodetypes="ccccccccccc"
     style="fill:#ffffff;stroke-width:0.132491" />
  <path
     d="m 28.624208,55.739823 3.367908,-3.361776 c 0.2281,-0.253296 0.22229,-0.482919 0.556044,-0.529954 0.66744,-0.08976 0.935992,0.864362 0.679009,0.927428 -0.05451,0.09685 -0.679784,0.07521 -0.679784,0.07521 l -3.538512,3.506518 c 0.355182,0.853208 3.935773,3.788627 4.483281,3.970332 0.183522,0.313182 -0.333313,0.926855 -0.819784,0.927444 -1.836892,-0.760433 -3.041622,-3.072347 -4.264705,-4.323992 -1.408411,1.077956 -3.527452,4.588976 -3.527452,4.588976 l -0.397462,-0.132523 c -0.167251,-0.668979 -0.14748,-1.046229 0.184885,-1.674249 0.990188,-1.227574 2.049695,-2.184979 3.127397,-3.227935 -0.4383,-1.439696 -1.743768,-2.495143 -1.589901,-3.908495 0.11048,-0.267122 0.819263,-0.650277 0.819263,-0.650277 0.07227,1.466201 0.528511,2.85194 1.599813,3.813316 z"
     fill="#0b090c"
     id="path20"
     sodipodi:nodetypes="cccccccccccccccc"
     style="fill:#ffffff;stroke-width:0.132491" />
  <path
     id="path22"
     d="m 11.366102,53.967947 -0.132517,8.081974 0.132517,-0.397475 c 0.441614,-0.08617 1.147729,0.0887 1.427902,-0.253082 0.06599,-2.434333 -0.135018,-5.052442 -0.367966,-7.431417 z"
     sodipodi:nodetypes="cccccc"
     style="fill:url(#linearGradient23468);fill-opacity:1;stroke:none;stroke-width:0.132491" />
  <path
     d="m 36.415243,52.13791 c 0.918759,0.252893 0.580997,1.417948 0.338483,2.081569 -0.29432,0.846555 -0.390436,1.719628 -0.504092,2.605313 l -0.03567,0.266197 c -0.15893,1.188673 -0.386642,2.407215 -0.119828,3.531913 0.01829,0.907833 -1.447937,0.982776 -1.541997,0.234592 -0.128511,-1.229322 0.08162,-2.444993 0.298113,-3.651792 0.250769,-1.060362 0.546786,-5.157724 1.565055,-5.067792 z"
     fill="#0a070a"
     id="path24"
     sodipodi:nodetypes="cccccccc"
     style="fill:#ffffff;stroke-width:0.132491" />
  <path
     d="m 11.366102,50.655666 c 0.48094,0 0.961882,0 1.457397,0 0.282992,3.66232 0.345191,7.324867 0.397475,10.99678 -0.670219,0.306541 -1.09798,0.443816 -1.854872,0.397475 0,-0.131182 0,-0.262338 0,-0.397475 0.655834,-0.131183 0.655834,-0.131183 1.324906,-0.264983 -0.0159,-0.569856 -0.03234,-1.139687 -0.0493,-1.709517 -0.0054,-0.192954 -0.01067,-0.385907 -0.01656,-0.578873 -0.0318,-1.137108 -0.08042,-2.268766 -0.171928,-3.403041 -0.03887,-0.576442 -0.03914,-1.150694 -0.02712,-1.728085 -0.349772,0 -0.699558,0 -1.059934,0 0.02485,-0.2981 0.02485,-0.2981 0.132518,-0.662458 0.106601,-0.0847 0.21315,-0.169428 0.322947,-0.256702 0.549925,-0.442614 0.599793,-0.97854 0.687306,-1.647865 0.01643,-0.158488 0.03287,-0.316976 0.04969,-0.480273 -0.393508,0 -0.787003,0 -1.192427,0 0,-0.0875 0,-0.174891 0,-0.264983 z"
     fill="#dbb68a"
     id="path28"
     style="stroke-width:0.132491" />
  <path
     d="m 11.233611,32.371851 h 0.132519 v 29.67807 h -0.132519 z"
     fill="#140201"
     id="path30"
     sodipodi:nodetypes="ccccc"
     style="stroke-width:0.132491" />
  <path
     id="path36"
     d="m 12.823499,50.655666 0.132519,3.842248 h 0.09018 c 0.441038,-1.528263 1.551415,-2.839394 2.559718,-3.842248 z"
     style="fill:url(#linearGradient6653);fill-opacity:1;stroke-width:0.132491"
     sodipodi:nodetypes="ccccc" />
  <path
     id="path40"
     d="m 11.366102,50.920649 v 0.927444 0.794937 0.794951 0.397475 c 0.756852,-0.653201 1.189796,-1.805698 1.192413,-2.914807 z"
     style="fill:url(#linearGradient13227);fill-opacity:1;stroke-width:0.132491"
     sodipodi:nodetypes="ccccccc" />
  <path
     d="m 12.558515,52.378047 0.162576,0.004 c 0.486511,2.858739 0.281801,6.144852 0.372935,9.143416 l -0.128109,0.04957 c -0.0378,-0.984232 -0.401951,-8.621304 -0.407347,-9.197226 z"
     fill="#deae74"
     id="path146"
     sodipodi:nodetypes="ccccc"
     style="stroke-width:0.132491" />
  <ellipse
     style="fill:#d3d3d5;fill-opacity:1;stroke-width:0.149689;stroke-linecap:round;stroke-linejoin:round"
     id="path2644"
     cx="36.968212"
     cy="46.951523"
     rx="3.7556605"
     ry="3.3800941" />
</svg>
